# xmcd
#
# Track frame offsets:
#	150
#	10925
#	22921
#	36547
#	48467
#	62506
#	75164
#	88422
#	102228
#	114676
#	127720
#	139095
#	152880
#	165910
#
# Disc length: 2395
#
# Revision: 3
# Processed by: cddbd v1.5.1PL0 Copyright (c) Steve Scherf et al.
# Submitted via: WhereIsIt 3.51
# Normalized: r2:DSETVAR1,TDELIM( - )
#
DISCID=a709590e
DTITLE=Various Artist - Nothing But the Blues: Disc 04
DYEAR=1900
DGENRE=
TTITLE0=T-Bone Walker - Lonesome women blues
TTITLE1=T-Bone Walker - Too much trouble blues
TTITLE2=T-Bone Walker - Call it stormy Monday
TTITLE3=T-Bone Walker - Bobby Sox Blues
TTITLE4=T-Bone Walker - So Blue Blues
TTITLE5=T-Bone Walker - Hypin' Women Blues
TTITLE6=Roosevelt Sykes - The Honeydripper
TTITLE7=Joe Williams - Somebody's been borrowing that stuff
TTITLE8=Joe Turner - Hollywood bed
TTITLE9=Joe Turner - Miss Brown Blues
TTITLE10=Willie Dixon - Big 3 Boogie
TTITLE11=Willie Dixon - If the sea was whiskey
TTITLE12=Willie Dixon - Signifying monkey
TTITLE13=Willie Dixon - Big 3 stomp
EXTD=
EXTT0=
EXTT1=
EXTT2=
EXTT3=
EXTT4=
EXTT5=
EXTT6=
EXTT7=
EXTT8=
EXTT9=
EXTT10=
EXTT11=
EXTT12=
EXTT13=
PLAYORDER=
